<svg xmlns="http://www.w3.org/2000/svg" xml:space="preserve" width="85" height="20" version="1.1"
    shape-rendering="geometricPrecision" text-rendering="geometricPrecision"
    image-rendering="optimizeQuality" fill-rule="evenodd" clip-rule="evenodd"
    viewBox="0 0 267 47">
 <g id="Layer_x0020_1">
  <g id="_1814555361152">
   <path fill="#A1A1A1" d="M46.73 41.18c0,-3.34 -2.71,-6.05 -6.05,-6.05 -3.33,0 -6.04,2.71 -6.04,6.05 0,3.34 2.71,6.04 6.04,6.04 3.34,0 6.05,-2.7 6.05,-6.04z"/>
   <path fill="#444444" d="M45.09 11.02l0 0c2.19,1.86 2.38,5.09 0.43,7.17l-25.46 27.18c-1.95,2.09 -5.34,2.27 -7.54,0.41l0 0c-2.19,-1.86 -2.38,-5.08 -0.43,-7.17l25.47 -27.18c1.95,-2.08 5.34,-2.27 7.53,-0.41z"/>
   <path fill="#444444" d="M16 16.03l0 0c2.93,0 5.33,1.91 5.33,4.24l0 22.51c0,2.44 -2.51,4.44 -5.59,4.44l0 0c-2.79,0 -5.08,-1.81 -5.08,-4.03l0 -22.92c0,-2.33 2.4,-4.24 5.34,-4.24z"/>
   <path fill="#727272" d="M21.74 6.98c0,-3.33 -2.7,-6.04 -6.04,-6.04 -3.34,0 -6.04,2.71 -6.04,6.04 0,3.34 2.7,6.05 6.04,6.05 3.34,0 6.04,-2.71 6.04,-6.05z"/>
   <path fill="#444444" d="M19.33 17.52l0 0c2.05,2.1 2.01,5.5 -0.09,7.55l-10.17 9.9c-2.1,2.05 -5.49,2.01 -7.54,-0.09l0 0c-2.05,-2.1 -2.01,-5.5 0.1,-7.55l10.16 -9.9c2.1,-2.05 5.49,-2.01 7.54,0.09z"/>
   <path fill="#444444" fill-rule="nonzero" d="M55.23 37.13l0 -24.2 4.38 0 0 11.12 0.3 0 9.44 -11.12 5.35 0 -9.36 10.86 9.44 13.34 -5.27 0 -7.21 -10.38 -2.69 3.17 0 7.21 -4.38 0zm20.6 0l0 -24.2 4.38 0 0 20.52 10.66 0 0 3.68 -15.04 0zm20.92 0l-4.68 0 8.52 -24.2 5.41 0 8.53 24.2 -4.67 0 -6.47 -19.24 -0.19 0 -6.45 19.24zm0.16 -9.49l12.76 0 0 3.52 -12.76 0 0 -3.52zm34.14 -14.71l4.39 0 0 15.81c0,1.73 -0.41,3.26 -1.23,4.57 -0.81,1.32 -1.95,2.34 -3.43,3.08 -1.47,0.74 -3.19,1.1 -5.16,1.1 -1.98,0 -3.71,-0.36 -5.17,-1.1 -1.48,-0.74 -2.62,-1.76 -3.43,-3.08 -0.81,-1.31 -1.22,-2.84 -1.22,-4.57l0 -15.81 4.39 0 0 15.44c0,1.01 0.22,1.91 0.66,2.7 0.45,0.78 1.08,1.4 1.89,1.84 0.81,0.45 1.77,0.67 2.88,0.67 1.11,0 2.07,-0.22 2.89,-0.67 0.81,-0.44 1.44,-1.06 1.88,-1.84 0.44,-0.79 0.66,-1.69 0.66,-2.7l0 -15.44zm15.44 24.2l-8.2 0 0 -24.2 8.36 0c2.4,0 4.47,0.48 6.2,1.45 1.73,0.96 3.06,2.35 3.99,4.15 0.92,1.81 1.39,3.97 1.39,6.48 0,2.51 -0.47,4.68 -1.4,6.5 -0.93,1.8 -2.28,3.19 -4.03,4.16 -1.75,0.98 -3.86,1.46 -6.31,1.46zm-3.82 -3.8l3.61 0c1.68,0 3.08,-0.31 4.21,-0.92 1.13,-0.62 1.97,-1.55 2.54,-2.78 0.57,-1.23 0.85,-2.77 0.85,-4.62 0,-1.86 -0.28,-3.39 -0.85,-4.62 -0.57,-1.22 -1.4,-2.14 -2.51,-2.75 -1.11,-0.61 -2.47,-0.92 -4.12,-0.92l-3.73 0 0 16.61zm39.42 -8.3c0,2.6 -0.49,4.84 -1.46,6.69 -0.97,1.86 -2.3,3.28 -3.97,4.26 -1.67,0.99 -3.57,1.48 -5.68,1.48 -2.13,0 -4.02,-0.5 -5.69,-1.49 -1.68,-0.98 -3,-2.4 -3.97,-4.26 -0.98,-1.85 -1.46,-4.08 -1.46,-6.68 0,-2.61 0.48,-4.84 1.46,-6.69 0.97,-1.86 2.29,-3.27 3.97,-4.26 1.67,-0.99 3.56,-1.48 5.69,-1.48 2.11,0 4.01,0.49 5.68,1.48 1.67,0.99 3,2.4 3.97,4.26 0.97,1.85 1.46,4.08 1.46,6.69zm-4.41 0c0,-1.84 -0.28,-3.38 -0.85,-4.65 -0.58,-1.26 -1.36,-2.22 -2.37,-2.87 -1.01,-0.65 -2.17,-0.98 -3.48,-0.98 -1.32,0 -2.48,0.33 -3.49,0.98 -1.01,0.65 -1.8,1.61 -2.37,2.87 -0.57,1.27 -0.86,2.81 -0.86,4.65 0,1.83 0.29,3.39 0.86,4.65 0.57,1.27 1.36,2.22 2.37,2.87 1.01,0.65 2.17,0.97 3.49,0.97 1.31,0 2.47,-0.32 3.48,-0.97 1.01,-0.65 1.79,-1.6 2.37,-2.87 0.57,-1.26 0.85,-2.82 0.85,-4.65zm6.65 12.1l0 -24.2 15.5 0 0 3.68 -11.12 0 0 6.57 10.05 0 0 3.67 -10.05 0 0 10.28 -4.38 0zm17.56 0l0 -24.2 15.5 0 0 3.68 -11.12 0 0 6.57 10.05 0 0 3.67 -10.05 0 0 10.28 -4.38 0zm21.94 -24.2l0 24.2 -4.39 0 0 -24.2 4.39 0zm23.55 8.17l-4.42 0c-0.13,-0.73 -0.36,-1.37 -0.7,-1.94 -0.34,-0.56 -0.76,-1.04 -1.26,-1.43 -0.51,-0.4 -1.08,-0.69 -1.72,-0.89 -0.64,-0.21 -1.33,-0.31 -2.07,-0.31 -1.32,0 -2.48,0.33 -3.5,0.99 -1.02,0.66 -1.81,1.62 -2.39,2.88 -0.57,1.27 -0.86,2.81 -0.86,4.63 0,1.85 0.29,3.41 0.87,4.67 0.58,1.27 1.38,2.22 2.38,2.86 1.02,0.64 2.18,0.96 3.49,0.96 0.72,0 1.4,-0.09 2.03,-0.28 0.64,-0.2 1.21,-0.48 1.71,-0.86 0.51,-0.38 0.94,-0.85 1.3,-1.4 0.35,-0.55 0.58,-1.18 0.72,-1.89l4.42 0.03c-0.16,1.15 -0.53,2.22 -1.07,3.23 -0.55,1.01 -1.26,1.9 -2.14,2.67 -0.89,0.77 -1.92,1.36 -3.1,1.8 -1.18,0.42 -2.49,0.64 -3.94,0.64 -2.12,0 -4.02,-0.49 -5.69,-1.48 -1.67,-0.98 -2.98,-2.41 -3.94,-4.26 -0.97,-1.86 -1.44,-4.09 -1.44,-6.69 0,-2.61 0.48,-4.84 1.45,-6.69 0.96,-1.86 2.28,-3.27 3.95,-4.26 1.68,-0.99 3.56,-1.48 5.67,-1.48 1.35,0 2.61,0.19 3.76,0.57 1.16,0.38 2.19,0.93 3.1,1.66 0.9,0.73 1.65,1.62 2.24,2.67 0.59,1.05 0.97,2.25 1.15,3.6zm2.11 16.03l0 -24.2 15.74 0 0 3.68 -11.36 0 0 6.57 10.54 0 0 3.67 -10.54 0 0 6.6 11.45 0 0 3.68 -15.83 0z"/>
  </g>
 </g>
</svg>