<?xml version="1.0" encoding="UTF-8"?>
<!DOCTYPE svg PUBLIC "-//W3C//DTD SVG 1.1//EN" "http://www.w3.org/Graphics/SVG/1.1/DTD/svg11.dtd">
<!-- Creator: CorelDRAW 2021.5 -->
<svg xmlns="http://www.w3.org/2000/svg" xml:space="preserve" width="1181px" height="496px" version="1.1" shape-rendering="geometricPrecision" text-rendering="geometricPrecision" image-rendering="optimizeQuality" fill-rule="evenodd" clip-rule="evenodd"
viewBox="0 0 1181 496.02"
 xmlns:xlink="http://www.w3.org/1999/xlink"
 xmlns:xodm="http://www.corel.com/coreldraw/odm/2003">
 <g id="Layer_x0020_1">
  <metadata id="CorelCorpID_0Corel-Layer"/>
  <path fill="#FEFEFE" fill-rule="nonzero" d="M16.48 492.16l0 -65.04 11.79 0 0 29.88 0.79 0 25.38 -29.88 14.38 0 -25.15 29.18 25.37 35.86 -14.17 0 -19.39 -27.89 -7.21 8.51 0 19.38 -11.79 0zm55.37 0l0 -65.04 11.79 0 0 55.16 28.64 0 0 9.88 -40.43 0zm56.26 0l-12.58 0 22.89 -65.04 14.55 0 22.92 65.04 -12.56 0 -17.38 -51.71 -0.51 0 -17.33 51.71zm0.42 -25.5l34.29 0 0 9.46 -34.29 0 0 -9.46zm91.77 -39.54l11.79 0 0 42.49c0,4.66 -1.1,8.76 -3.29,12.29 -2.2,3.53 -5.27,6.29 -9.23,8.28 -3.96,1.98 -8.58,2.96 -13.88,2.96 -5.32,0 -9.95,-0.98 -13.9,-2.96 -3.96,-1.99 -7.03,-4.75 -9.21,-8.28 -2.18,-3.53 -3.28,-7.63 -3.28,-12.29l0 -42.49 11.79 0 0 41.5c0,2.72 0.6,5.13 1.79,7.25 1.2,2.11 2.89,3.77 5.07,4.96 2.17,1.21 4.76,1.8 7.74,1.8 2.99,0 5.58,-0.59 7.77,-1.8 2.19,-1.19 3.88,-2.85 5.07,-4.96 1.17,-2.12 1.77,-4.53 1.77,-7.25l0 -41.5zm41.49 65.04l-22.04 0 0 -65.04 22.49 0c6.45,0 12.01,1.29 16.64,3.88 4.66,2.6 8.23,6.33 10.74,11.17 2.48,4.86 3.74,10.66 3.74,17.41 0,6.76 -1.26,12.59 -3.76,17.46 -2.52,4.86 -6.12,8.6 -10.84,11.21 -4.7,2.61 -10.37,3.91 -16.97,3.91zm-10.25 -10.2l9.68 0c4.53,0 8.31,-0.83 11.33,-2.49 3.04,-1.67 5.31,-4.16 6.83,-7.46 1.53,-3.31 2.29,-7.46 2.29,-12.43 0,-4.98 -0.76,-9.11 -2.29,-12.4 -1.52,-3.3 -3.77,-5.76 -6.74,-7.41 -2.98,-1.64 -6.66,-2.46 -11.07,-2.46l-10.03 0 0 44.65zm105.96 -22.32c0,7 -1.31,13.01 -3.94,17.98 -2.6,5 -6.17,8.81 -10.67,11.45 -4.48,2.65 -9.58,3.98 -15.27,3.98 -5.71,0 -10.79,-1.34 -15.3,-3.99 -4.5,-2.66 -8.06,-6.47 -10.67,-11.46 -2.62,-4.98 -3.92,-10.97 -3.92,-17.96 0,-7.01 1.3,-13 3.92,-17.99 2.61,-4.98 6.17,-8.8 10.67,-11.45 4.51,-2.65 9.59,-3.96 15.3,-3.96 5.69,0 10.79,1.31 15.27,3.96 4.5,2.65 8.07,6.47 10.67,11.45 2.63,4.99 3.94,10.98 3.94,17.99zm-11.85 0c0,-4.94 -0.78,-9.1 -2.31,-12.49 -1.54,-3.4 -3.65,-5.98 -6.37,-7.72 -2.71,-1.75 -5.82,-2.63 -9.35,-2.63 -3.55,0 -6.67,0.88 -9.38,2.63 -2.71,1.74 -4.83,4.32 -6.36,7.72 -1.54,3.39 -2.31,7.55 -2.31,12.49 0,4.93 0.77,9.1 2.31,12.5 1.53,3.4 3.65,5.96 6.36,7.7 2.71,1.76 5.83,2.63 9.38,2.63 3.53,0 6.64,-0.87 9.35,-2.63 2.72,-1.74 4.83,-4.3 6.37,-7.7 1.53,-3.4 2.31,-7.57 2.31,-12.5zm17.85 32.52l0 -65.04 41.67 0 0 9.88 -29.88 0 0 17.66 27.02 0 0 9.87 -27.02 0 0 27.63 -11.79 0zm47.2 0l0 -65.04 41.67 0 0 9.88 -29.88 0 0 17.66 27.02 0 0 9.87 -27.02 0 0 27.63 -11.79 0zm58.99 -65.04l0 65.04 -11.79 0 0 -65.04 11.79 0zm63.31 21.95l-11.88 0c-0.35,-1.95 -0.97,-3.68 -1.88,-5.2 -0.91,-1.51 -2.04,-2.8 -3.4,-3.86 -1.36,-1.06 -2.89,-1.85 -4.62,-2.39 -1.73,-0.55 -3.57,-0.82 -5.57,-0.82 -3.53,0 -6.66,0.88 -9.41,2.66 -2.72,1.77 -4.86,4.35 -6.4,7.75 -1.55,3.39 -2.33,7.54 -2.33,12.43 0,4.97 0.79,9.16 2.34,12.56 1.55,3.4 3.7,5.96 6.41,7.68 2.73,1.72 5.84,2.59 9.36,2.59 1.95,0 3.77,-0.25 5.47,-0.77 1.71,-0.53 3.25,-1.29 4.6,-2.32 1.37,-1.01 2.52,-2.26 3.48,-3.74 0.93,-1.47 1.58,-3.17 1.95,-5.08l11.88 0.06c-0.45,3.1 -1.42,5.99 -2.88,8.7 -1.47,2.72 -3.4,5.1 -5.77,7.17 -2.37,2.06 -5.14,3.67 -8.32,4.83 -3.17,1.15 -6.7,1.73 -10.58,1.73 -5.7,0 -10.82,-1.33 -15.3,-3.98 -4.49,-2.64 -8.02,-6.47 -10.6,-11.46 -2.59,-4.99 -3.88,-10.98 -3.88,-17.97 0,-7.01 1.3,-13 3.91,-17.99 2.59,-4.98 6.14,-8.8 10.63,-11.45 4.5,-2.65 9.57,-3.96 15.24,-3.96 3.62,0 6.99,0.5 10.11,1.52 3.11,1.01 5.88,2.5 8.32,4.45 2.42,1.97 4.44,4.35 6.02,7.19 1.58,2.83 2.61,6.05 3.1,9.67zm5.66 43.09l0 -65.04 42.31 0 0 9.88 -30.52 0 0 17.66 28.31 0 0 9.87 -28.31 0 0 17.75 30.76 0 0 9.88 -42.55 0z"/>
  <path fill="#FEFEFE" fill-rule="nonzero" d="M632.44 492.56l-18.95 0 0 -64.73 20.1 0c6.17,0 11.45,1.29 15.84,3.85 4.39,2.58 7.76,6.26 10.1,11.07 2.34,4.8 3.5,10.56 3.5,17.29 0,6.78 -1.19,12.6 -3.57,17.46 -2.41,4.85 -5.88,8.58 -10.45,11.17 -4.55,2.6 -10.08,3.89 -16.57,3.89zm-13.05 -5.31l12.71 0c5.56,0 10.21,-1.1 13.96,-3.29 3.75,-2.18 6.57,-5.31 8.44,-9.38 1.88,-4.06 2.82,-8.91 2.82,-14.54 -0.03,-5.59 -0.95,-10.39 -2.78,-14.41 -1.8,-4.02 -4.5,-7.11 -8.08,-9.26 -3.57,-2.15 -7.98,-3.23 -13.23,-3.23l-13.84 0 0 54.11zm111 -27.06c0,6.75 -1.2,12.61 -3.61,17.6 -2.4,4.98 -5.71,8.84 -9.9,11.57 -4.2,2.72 -9.04,4.09 -14.5,4.09 -5.46,0 -10.28,-1.37 -14.49,-4.09 -4.2,-2.73 -7.49,-6.59 -9.89,-11.57 -2.39,-4.99 -3.58,-10.85 -3.58,-17.6 0,-6.73 1.19,-12.61 3.58,-17.59 2.4,-4.97 5.69,-8.83 9.91,-11.56 4.21,-2.72 9.04,-4.09 14.47,-4.09 5.46,0 10.3,1.37 14.5,4.09 4.19,2.73 7.5,6.59 9.9,11.56 2.41,4.98 3.61,10.86 3.61,17.59zm-5.76 0c0,-5.78 -0.96,-10.75 -2.9,-14.89 -1.93,-4.15 -4.59,-7.31 -7.94,-9.51 -3.35,-2.18 -7.15,-3.28 -11.41,-3.28 -4.22,0 -8.02,1.1 -11.37,3.28 -3.36,2.2 -6,5.36 -7.96,9.48 -1.94,4.14 -2.92,9.11 -2.92,14.92 0,5.8 0.98,10.76 2.91,14.9 1.94,4.12 4.58,7.29 7.94,9.49 3.35,2.2 7.15,3.31 11.4,3.31 4.26,0 8.07,-1.1 11.42,-3.3 3.37,-2.19 6.03,-5.35 7.96,-9.49 1.94,-4.14 2.9,-9.11 2.87,-14.91zm70.73 -12.13l-5.93 0c-0.45,-2.21 -1.25,-4.26 -2.39,-6.14 -1.16,-1.9 -2.6,-3.55 -4.32,-4.96 -1.73,-1.41 -3.69,-2.5 -5.87,-3.27 -2.2,-0.79 -4.57,-1.18 -7.12,-1.18 -4.08,0 -7.81,1.06 -11.17,3.19 -3.37,2.12 -6.05,5.25 -8.06,9.38 -2.01,4.11 -3.02,9.15 -3.02,15.11 0,6.01 1.01,11.07 3.02,15.18 2.01,4.11 4.69,7.22 8.06,9.33 3.36,2.12 7.09,3.19 11.17,3.19 2.55,0 4.92,-0.4 7.12,-1.18 2.18,-0.78 4.14,-1.86 5.87,-3.27 1.72,-1.4 3.16,-3.04 4.32,-4.94 1.14,-1.9 1.94,-3.95 2.39,-6.17l5.93 0c-0.52,2.98 -1.51,5.74 -2.95,8.3 -1.44,2.55 -3.28,4.8 -5.5,6.71 -2.23,1.93 -4.78,3.42 -7.66,4.49 -2.89,1.07 -6.07,1.62 -9.52,1.62 -5.43,0 -10.27,-1.37 -14.48,-4.09 -4.21,-2.73 -7.51,-6.59 -9.91,-11.56 -2.39,-4.97 -3.57,-10.84 -3.57,-17.61 0,-6.76 1.18,-12.62 3.57,-17.6 2.4,-4.97 5.7,-8.82 9.91,-11.55 4.21,-2.72 9.05,-4.09 14.48,-4.09 3.45,0 6.63,0.54 9.52,1.59 2.88,1.07 5.43,2.56 7.66,4.49 2.22,1.93 4.06,4.17 5.5,6.72 1.44,2.55 2.43,5.31 2.95,8.31zm57.05 -20.23l5.9 0 0 42.86c0,4.4 -1.02,8.34 -3.08,11.8 -2.08,3.47 -4.94,6.2 -8.62,8.19 -3.68,1.98 -7.95,2.99 -12.82,2.99 -4.85,0 -9.1,-1.01 -12.8,-3.01 -3.69,-2 -6.55,-4.73 -8.63,-8.19 -2.06,-3.45 -3.09,-7.38 -3.09,-11.78l0 -42.86 5.91 0 0 42.45c0,3.43 0.77,6.5 2.31,9.18 1.53,2.69 3.7,4.79 6.48,6.34 2.81,1.54 6.07,2.31 9.82,2.31 3.76,0 7.03,-0.77 9.84,-2.31 2.8,-1.55 4.95,-3.65 6.48,-6.34 1.53,-2.68 2.3,-5.75 2.3,-9.18l0 -42.45zm23.11 0l6.83 0 23.48 56.38 0.56 0 23.48 -56.38 6.84 0 0 64.73 -5.56 0 0 -52.24 -0.52 0 -21.84 52.24 -5.37 0 -21.83 -52.24 -0.51 0 0 52.24 -5.56 0 0 -64.73zm78.38 64.73l0 -64.73 37.55 0 0 5.31 -31.64 0 0 24.37 29.65 0 0 5.31 -29.65 0 0 24.43 32.26 0 0 5.31 -38.17 0zm103.21 -64.73l0 64.73 -5.75 0 -38.24 -54.2 -0.51 0 0 54.2 -5.9 0 0 -64.73 5.71 0 38.37 54.27 0.51 0 0 -54.27 5.81 0zm13.28 5.31l0 -5.31 46.93 0 0 5.31 -20.5 0 0 59.42 -5.92 0 0 -59.42 -20.51 0zm95.36 10.87c-0.35,-3.61 -1.95,-6.47 -4.77,-8.59 -2.82,-2.13 -6.38,-3.19 -10.65,-3.19 -3.01,0 -5.67,0.51 -7.95,1.54 -2.29,1.04 -4.08,2.47 -5.37,4.29 -1.29,1.83 -1.95,3.89 -1.95,6.2 0,1.71 0.37,3.21 1.12,4.5 0.72,1.27 1.72,2.38 2.98,3.3 1.24,0.91 2.64,1.7 4.17,2.35 1.52,0.65 3.07,1.2 4.62,1.64l6.84 1.96c2.06,0.58 4.13,1.31 6.19,2.18 2.06,0.89 3.96,2 5.68,3.34 1.71,1.34 3.09,2.97 4.14,4.9 1.04,1.92 1.56,4.24 1.56,6.94 0,3.45 -0.89,6.55 -2.69,9.31 -1.79,2.78 -4.36,4.96 -7.71,6.57 -3.36,1.61 -7.36,2.42 -12.05,2.42 -4.39,0 -8.22,-0.74 -11.46,-2.21 -3.25,-1.45 -5.8,-3.48 -7.66,-6.08 -1.85,-2.58 -2.89,-5.59 -3.13,-9l6.08 0c0.21,2.55 1.06,4.71 2.52,6.48 1.47,1.76 3.4,3.11 5.76,4.03 2.36,0.91 4.98,1.37 7.89,1.37 3.24,0 6.1,-0.54 8.62,-1.63 2.52,-1.09 4.5,-2.6 5.95,-4.54 1.44,-1.96 2.16,-4.23 2.16,-6.83 0,-2.18 -0.57,-4.02 -1.72,-5.5 -1.12,-1.48 -2.71,-2.74 -4.74,-3.75 -2.03,-1.01 -4.39,-1.9 -7.06,-2.69l-7.75 -2.27c-5.08,-1.52 -9.02,-3.62 -11.82,-6.29 -2.8,-2.68 -4.21,-6.09 -4.21,-10.25 0,-3.47 0.93,-6.52 2.8,-9.18 1.87,-2.64 4.39,-4.7 7.58,-6.18 3.19,-1.49 6.78,-2.23 10.77,-2.23 4.02,0 7.58,0.73 10.68,2.21 3.1,1.47 5.56,3.5 7.37,6.08 1.83,2.58 2.81,5.52 2.94,8.8l-5.73 0z"/>
  <path fill="#6B95EF" d="M746.49 294.97c0,-24.25 -19.66,-43.91 -43.92,-43.91 -24.25,0 -43.91,19.66 -43.91,43.91 0,24.25 19.66,43.91 43.91,43.91 24.26,0 43.92,-19.66 43.92,-43.91z"/>
  <path fill="#2563EB" d="M734.58 75.85l0 0c15.91,13.5 17.33,36.94 3.14,52.09l-185 197.49c-14.19,15.15 -38.82,16.49 -54.73,2.99l0 0c-15.92,-13.5 -17.33,-36.94 -3.15,-52.08l185.01 -197.5c14.19,-15.14 38.81,-16.49 54.73,-2.99z"/>
  <path fill="#2563EB" d="M523.22 112.24l0 0c21.32,0 38.77,13.86 38.77,30.79l0 163.58c0,17.75 -18.28,32.27 -40.62,32.27l0 0c-20.3,0 -36.91,-13.19 -36.91,-29.32l0 -166.53c0,-16.93 17.44,-30.79 38.76,-30.79z"/>
  <path fill="#6B95EF" d="M564.97 46.52c0,-24.25 -19.66,-43.91 -43.91,-43.91 -24.26,0 -43.92,19.66 -43.92,43.91 0,24.25 19.66,43.92 43.92,43.92 24.25,0 43.91,-19.67 43.91,-43.92z"/>
  <path fill="#2563EB" d="M547.44 123.1l0.01 0c14.88,15.26 14.56,39.93 -0.7,54.81l-73.83 71.97c-15.27,14.89 -39.94,14.57 -54.82,-0.7l0 0c-14.88,-15.26 -14.57,-39.93 0.7,-54.81l73.83 -71.97c15.26,-14.89 39.93,-14.57 54.81,0.7z"/>
 </g>
</svg>
